#tb 0: 1/30
0,          0,          0,        1,    38016, 83c78b5db579710f61f9354d5c51e8c8
0,          1,          1,        1,    38016, 9b755a63c7c5352660a265f6e24991e1
0,          2,          2,        1,    38016, a591f0b04447d6d6dd9bb990502594aa
0,          3,          3,        1,    38016, 6ebbd38d20a4104a842c66df53a8b86e
0,          4,          4,        1,    38016, a114c37e74a4252ed66c5c4e7c8df84b
0,          5,          5,        1,    38016, 4bad182348dcfb627b3e15bc228a3c8f
0,          6,          6,        1,    38016, a843b5c80266f890044a4ba1f59de8ed
0,          7,          7,        1,    38016, 34816d9129f252afcbd56d6ad1df94c7
0,          8,          8,        1,    38016, 7d7d46cd08e18aea6fc52c0ec58a4803
0,          9,          9,        1,    38016, c96c3357d89534fce32251a0d52c68c5
0,         10,         10,        1,    38016, 5eb1329f955ab80696d8220605a51552
0,         11,         11,        1,    38016, 68b3d5162cd5b004a6dfeac705c75afa
0,         12,         12,        1,    38016, b79647c678fbbb9ffbd8c4ff63c05e43
0,         13,         13,        1,    38016, 4566eb5f995852d72b6913d2ca2e321c
0,         14,         14,        1,    38016, 02e7e951ac9e42eafb1260defaecf685
0,         15,         15,        1,    38016, ddbfa0f81a009c41271c9aa587e88baa
0,         16,         16,        1,    38016, 27d31dba74cb2170c456830a9f888c0b
0,         17,         17,        1,    38016, 0537650a41bb087a5fd33d6347fe9036
0,         18,         18,        1,    38016, df2205297d4f00164a3440c8fa1ac4ee
0,         19,         19,        1,    38016, 9942b757bd3839c1cd6b1068c68967f2
0,         20,         20,        1,    38016, d9284e1e989cd38d0226b1a3c6e89409
0,         21,         21,        1,    38016, 12427a3fdc22461fe9d6ff9dd5863bef
0,         22,         22,        1,    38016, 63f75f2a63630347671c0e6dd2f88bcb
0,         23,         23,        1,    38016, b161169a678e3959b492d83a03d47dee
0,         24,         24,        1,    38016, 50a6d4c8722197f0abd1028b968dce58
0,         25,         25,        1,    38016, c0f81ef6b25034cff00db1e3c369be97
0,         26,         26,        1,    38016, 01b502a4b69d5be7a82f292e735aa087
0,         27,         27,        1,    38016, 6bbff03307f93a654e4529e2a5092887
0,         28,         28,        1,    38016, 17ef5fd4bd1cc6030e1370a43f1d19bf
